<svg width="15" height="15" viewBox="0 0 15 15" fill="none" xmlns="http://www.w3.org/2000/svg">
<path d="M7.5 14C11.0898 14 14 11.0899 14 7.5C14 3.91015 11.0899 1 7.5 1C3.91015 1 0.999999 3.91015 0.999999 7.5C0.999998 11.0899 3.91015 14 7.5 14Z" stroke="#2FA8B1"/>
<path fill-rule="evenodd" clip-rule="evenodd" d="M7.5 6.37955L4.99581 8.83263C4.76801 9.05579 4.39866 9.05579 4.17085 8.83263C3.94305 8.60947 3.94305 8.24767 4.17085 8.02451L7.08752 5.16737C7.31533 4.94421 7.68467 4.94421 7.91248 5.16737L10.8291 8.02451C11.057 8.24767 11.057 8.60948 10.8291 8.83263C10.6013 9.05579 10.232 9.05579 10.0042 8.83263L7.5 6.37955Z" fill="#2FA8B1"/>
</svg>
