<svg width="15" height="15" viewBox="0 0 15 15" fill="none" xmlns="http://www.w3.org/2000/svg">
<path d="M7.5 1C3.91015 1 0.999999 3.91015 0.999999 7.5C1 11.0899 3.91015 14 7.5 14C11.0899 14 14 11.0899 14 7.5C14 3.91015 11.0898 1 7.5 1Z" stroke="#2FA8B1"/>
<path fill-rule="evenodd" clip-rule="evenodd" d="M7.5 8.62045L10.0042 6.16737C10.232 5.94421 10.6013 5.94421 10.8291 6.16737C11.057 6.39052 11.057 6.75233 10.8291 6.97549L7.91248 9.83263C7.68467 10.0558 7.31533 10.0558 7.08752 9.83263L4.17085 6.97549C3.94305 6.75233 3.94305 6.39052 4.17085 6.16737C4.39866 5.94421 4.76801 5.94421 4.99581 6.16737L7.5 8.62045Z" fill="#2FA8B1"/>
</svg>
