<svg width="14" height="14" viewBox="0 0 14 14" fill="none" xmlns="http://www.w3.org/2000/svg">
<path fill-rule="evenodd" clip-rule="evenodd" d="M8.14212 6.72792L13.0919 11.6777C13.4824 12.0682 13.4824 12.7014 13.0919 13.0919C12.7013 13.4824 12.0682 13.4824 11.6777 13.0919L6.72791 8.14214L1.77816 13.0919C1.38763 13.4824 0.754469 13.4824 0.363944 13.0919C-0.02658 12.7014 -0.02658 12.0682 0.363944 11.6777L5.31369 6.72792L0.363944 1.77817C-0.02658 1.38765 -0.02658 0.754485 0.363944 0.363961C0.754469 -0.0265634 1.38763 -0.0265634 1.77816 0.363961L6.72791 5.31371L11.6777 0.363961C12.0682 -0.0265634 12.7013 -0.0265634 13.0919 0.363961C13.4824 0.754485 13.4824 1.38765 13.0919 1.77817L8.14212 6.72792Z" fill="#92929D"/>
<path fill-rule="evenodd" clip-rule="evenodd" d="M8.14212 6.72792L13.0919 11.6777C13.4824 12.0682 13.4824 12.7014 13.0919 13.0919C12.7013 13.4824 12.0682 13.4824 11.6777 13.0919L6.72791 8.14214L1.77816 13.0919C1.38763 13.4824 0.754469 13.4824 0.363944 13.0919C-0.02658 12.7014 -0.02658 12.0682 0.363944 11.6777L5.31369 6.72792L0.363944 1.77817C-0.02658 1.38765 -0.02658 0.754485 0.363944 0.363961C0.754469 -0.0265634 1.38763 -0.0265634 1.77816 0.363961L6.72791 5.31371L11.6777 0.363961C12.0682 -0.0265634 12.7013 -0.0265634 13.0919 0.363961C13.4824 0.754485 13.4824 1.38765 13.0919 1.77817L8.14212 6.72792Z" fill="#B5B5BE"/>
</svg>
