<svg width="15" height="15" viewBox="0 0 15 15" fill="none" xmlns="http://www.w3.org/2000/svg">
<path d="M1 7.5C1 11.0899 3.91015 14 7.5 14C11.0899 14 14 11.0899 14 7.5C14 3.91015 11.0899 1 7.5 1C3.91015 1 1 3.91015 1 7.5Z" stroke="#2FA8B1"/>
<path fill-rule="evenodd" clip-rule="evenodd" d="M8.62045 7.5L6.16737 4.99581C5.94421 4.76801 5.94421 4.39866 6.16737 4.17085C6.39053 3.94305 6.75233 3.94305 6.97549 4.17085L9.83263 7.08752C10.0558 7.31533 10.0558 7.68467 9.83263 7.91248L6.97549 10.8291C6.75233 11.057 6.39052 11.057 6.16737 10.8291C5.94421 10.6013 5.94421 10.232 6.16737 10.0042L8.62045 7.5Z" fill="#2FA8B1"/>
</svg>
