<svg width="16" height="15" viewBox="0 0 16 15" fill="none" xmlns="http://www.w3.org/2000/svg">
<path d="M1 1.93307H15C15.5523 1.93307 16 1.51521 16 0.99974C16 0.484274 15.5523 0.0664062 15 0.0664062H1C0.447715 0.0664062 0 0.484274 0 0.99974C0 1.51521 0.447715 1.93307 1 1.93307Z" fill="#2FA8B1"/>
<path d="M1 14.9995H15C15.5523 14.9995 16 14.5816 16 14.0661C16 13.5507 15.5523 13.1328 15 13.1328H1C0.447715 13.1328 0 13.5507 0 14.0661C0 14.5816 0.447715 14.9995 1 14.9995Z" fill="#2FA8B1"/>
<path d="M1 8.46628H15C15.5523 8.46628 16 8.04841 16 7.53294C16 7.01748 15.5523 6.59961 15 6.59961H1C0.447715 6.59961 0 7.01748 0 7.53294C0 8.04841 0.447715 8.46628 1 8.46628Z" fill="#2FA8B1"/>
</svg>
