<svg viewBox="0 0 30 44" xmlns="http://www.w3.org/2000/svg"><g fill="none" fill-rule="evenodd"><path d="M25.8795088,5.14424897 L24.4735439,3.80995885 C24.3472281,3.70467078 24.221614,3.59850823 24.091614,3.4972428 C21.5609123,1.52702675 18.378807,0.349619342 14.9189825,0.349619342 C6.67950877,0.349619342 -0.000140350877,7.00865226 -0.000140350877,15.2226955 C-0.000140350877,21.8537449 9.73564912,36.4984053 13.4777544,41.8826132 C14.1754737,42.8865226 15.6628421,42.8865226 16.360386,41.8826132 C20.1026667,36.4984053 29.8382807,21.8537449 29.8382807,15.2226955 C29.8382807,11.5110288 28.4712632,8.11942387 26.2156491,5.51380658 C26.1067018,5.38788066 25.9926667,5.26632716 25.8795088,5.14424897 Z" fill="#23A4B1"/><path d="M22.2515088,12.6062521 C22.5590526,13.4550278 22.7218596,14.3553981 22.7218596,15.2673117 C22.7218596,19.5794002 19.2027368,23.0876615 14.8772982,23.0876615 C10.5518596,23.0876615 7.03273684,19.5794002 7.03273684,15.2673117 C7.03273684,10.9550484 10.5518596,7.44696193 14.8772982,7.44696193 C16.2534386,7.44696193 17.6002807,7.80864918 18.7848421,8.48847428 L19.9665965,6.94850514 C19.9418596,6.93346399 19.9178246,6.91719856 19.8930877,6.9023323 C18.3816842,6.00003807 16.6474737,5.52309362 14.8772982,5.52309362 C9.48764912,5.52309362 5.10291228,9.89429733 5.10291228,15.2673117 C5.10291228,20.6403261 9.48764912,25.0115298 14.8772982,25.0115298 C20.2667719,25.0115298 24.6516842,20.6403261 24.6516842,15.2673117 C24.6516842,13.7308405 24.2865965,12.2172809 23.5937895,10.857106 L22.2515088,12.6062521 Z" fill="#FEFEFE"/><path d="M25.8795263,5.14417901 C25.4404035,4.66968313 24.9707544,4.22422016 24.4735614,3.81006379 L14.8004035,16.4148992 L12.8354912,14.1498066 L10.2842632,14.1498066 L14.891807,19.4617819 L25.8795263,5.14417901 Z" fill="#FEFEFE"/></g></svg>