<svg width="12" height="12" viewBox="0 0 12 12" fill="none" xmlns="http://www.w3.org/2000/svg">
<path fill-rule="evenodd" clip-rule="evenodd" d="M3.39799 1.62L3.80123 0.410263C3.8829 0.165258 4.11218 0 4.37044 0H7.61044C7.8687 0 8.09798 0.165258 8.17965 0.410263L8.5829 1.62H11.3904C11.7218 1.62 11.9904 1.88863 11.9904 2.22C11.9904 2.55137 11.7218 2.82 11.3904 2.82H10.8762L10.4358 10.3057C10.3799 11.2571 9.59201 12 8.63896 12H3.34193C2.38887 12 1.601 11.2571 1.54503 10.3057L1.1047 2.82H0.6C0.268629 2.82 0 2.55137 0 2.22C0 1.88863 0.268629 1.62 0.6 1.62H3.39799ZM4.66289 1.61996H7.31798L7.17798 1.19996H4.80289L4.66289 1.61996ZM9.67408 2.81992H2.30674L2.74293 10.2352C2.76158 10.5523 3.02421 10.7999 3.34189 10.7999H8.63892C8.95661 10.7999 9.21923 10.5523 9.23789 10.2352L9.67408 2.81992ZM7.01162 4.34257C7.03229 4.01185 7.31715 3.7605 7.64788 3.78117C7.9786 3.80184 8.22995 4.0867 8.20928 4.41743L7.93928 8.73743C7.91861 9.06815 7.63375 9.3195 7.30302 9.29883C6.9723 9.27816 6.72095 8.9933 6.74162 8.66257L7.01162 4.34257ZM5.23926 8.66257C5.25993 8.9933 5.00858 9.27816 4.67786 9.29883C4.34713 9.3195 4.06227 9.06815 4.0416 8.73743L3.7716 4.41743C3.75093 4.0867 4.00228 3.80184 4.333 3.78117C4.66373 3.7605 4.94859 4.01185 4.96926 4.34257L5.23926 8.66257Z" fill="#92929D"/>
</svg>
