<svg width="22" height="23" viewBox="0 0 22 23" fill="none" xmlns="http://www.w3.org/2000/svg">
    <rect x="0.5" y="0.5" width="20.5228" height="22" rx="2.5" stroke="white"/>
    <line x1="0.63208" y1="5.09424" x2="20.8889" y2="5.09424" stroke="white"/>
    <line x1="14.5601" y1="2.60791" x2="18.3582" y2="2.60791" stroke="white"/>
    <line x1="10.7612" y1="2.60791" x2="12.6603" y2="2.60791" stroke="white"/>
    <path d="M15.3259 12.4324C15.3259 14.8943 13.291 16.9054 10.7617 16.9054C8.23236 16.9054 6.19751 14.8943 6.19751 12.4324C6.19751 9.97062 8.23236 7.95947 10.7617 7.95947C13.291 7.95947 15.3259 9.97062 15.3259 12.4324Z" stroke="white"/>
    <path d="M3.29773 3.10799C3.29773 3.50994 2.96336 3.85123 2.53168 3.85123C2.09999 3.85123 1.76562 3.50994 1.76562 3.10799C1.76562 2.70604 2.09999 2.36475 2.53168 2.36475C2.96336 2.36475 3.29773 2.70604 3.29773 3.10799Z" stroke="white"/>
    <path d="M6.0144 13.3651C6.75293 13.7795 8.86299 14.484 10.129 13.9867C11.7116 13.3651 13.9271 11.5002 15.1932 11.811" stroke="white"/>
</svg>